<svg xmlns="http://www.w3.org/2000/svg" xmlns:xlink="http://www.w3.org/1999/xlink" width="302" height="64" viewBox="0 0 302 64">
  <defs>
    <clipPath id="clip-path">
      <rect x="-1" width="302" height="64" fill="none"/>
    </clipPath>
    <clipPath id="clip-path-2">
      <rect id="사각형_188" data-name="사각형 188" width="300.149" height="63.342" transform="translate(0 0)" fill="none"/>
    </clipPath>
    <clipPath id="clip-path-3">
      <rect id="사각형_190" data-name="사각형 190" width="5.508" height="10.903" transform="translate(33.078 24.069)" fill="none"/>
    </clipPath>
    <linearGradient id="linear-gradient" x1="-6.005" y1="3.602" x2="-5.824" y2="3.602" gradientUnits="objectBoundingBox">
      <stop offset="0" stop-color="#cdd310"/>
      <stop offset="1" stop-color="#88ba2b"/>
    </linearGradient>
    <clipPath id="clip-path-5">
      <rect id="사각형_197" data-name="사각형 197" width="5.512" height="10.986" transform="translate(22.045 29.486)" fill="none"/>
    </clipPath>
    <linearGradient id="linear-gradient-2" x1="-3.999" y1="3.082" x2="-3.818" y2="3.082" gradientUnits="objectBoundingBox">
      <stop offset="0" stop-color="#00a2e1"/>
      <stop offset="0.212" stop-color="#0092d4"/>
      <stop offset="0.62" stop-color="#006bb2"/>
      <stop offset="1" stop-color="#00418f"/>
    </linearGradient>
  </defs>
  <g id="ci" transform="translate(1)" clip-path="url(#clip-path)" style="isolation: isolate">
    <g id="그룹_1649" data-name="그룹 1649" transform="translate(0 0)">
      <g id="그룹_426" data-name="그룹 426">
        <g id="그룹_425" data-name="그룹 425" clip-path="url(#clip-path-2)">
          <path id="패스_488" data-name="패스 488" d="M85.878,19.366a6.793,6.793,0,0,1-1.362,2.089,32.8,32.8,0,0,1-2.444,2.555q-1.77,1.678-4.1,3.685c-1.552,1.332-3.085,2.622-4.605,3.854l-3.355-4.061q2.731-2.142,5.2-4.3t3.955-3.656a16.721,16.721,0,0,0,1.791-2.119A10.182,10.182,0,0,0,82.1,15.329a9.722,9.722,0,0,0,.6-2.289,19.291,19.291,0,0,0,.174-2.729V3.283h5.685v6.793c0,.888.029,1.7.085,2.41a9.155,9.155,0,0,0,.371,2,7.276,7.276,0,0,0,.88,1.838,10.21,10.21,0,0,0,1.622,1.822c1.328,1.232,2.778,2.516,4.348,3.826s3.216,2.6,4.925,3.83l-3.3,4.009q-2.217-1.677-4.239-3.4c-1.344-1.133-2.7-2.293-4.066-3.451a19.99,19.99,0,0,1-2.131-2.028,6.461,6.461,0,0,1-1.109-1.567Zm-5.4,24.027a7.731,7.731,0,0,1,1.079-3.951,10.149,10.149,0,0,1,3.131-3.248,16.909,16.909,0,0,1,4.975-2.21,27.647,27.647,0,0,1,13.254,0,16.974,16.974,0,0,1,4.974,2.21,10.117,10.117,0,0,1,3.128,3.248,7.731,7.731,0,0,1,1.079,3.951v2.324a7.744,7.744,0,0,1-1.079,3.945,10.205,10.205,0,0,1-3.128,3.247,16.9,16.9,0,0,1-4.974,2.21,27.747,27.747,0,0,1-13.254,0,16.832,16.832,0,0,1-4.975-2.21,10.238,10.238,0,0,1-3.131-3.247,7.744,7.744,0,0,1-1.079-3.945Zm26.106.348a3.87,3.87,0,0,0-.71-2.118,6.45,6.45,0,0,0-2.051-1.893,12.757,12.757,0,0,0-3.24-1.332,17.993,17.993,0,0,0-8.589,0,12.614,12.614,0,0,0-3.241,1.332,6.451,6.451,0,0,0-2.046,1.893A3.809,3.809,0,0,0,86,43.741v1.621a3.832,3.832,0,0,0,.711,2.125,6.416,6.416,0,0,0,2.046,1.883A12.9,12.9,0,0,0,91.993,50.7a17.794,17.794,0,0,0,8.589,0,13.054,13.054,0,0,0,3.24-1.329,6.415,6.415,0,0,0,2.051-1.883,3.894,3.894,0,0,0,.71-2.125Zm12.739-24.9H111.87V32.482H106.3V.91h5.571V13.847h7.452Z" fill="#ae0721"/>
          <path id="패스_489" data-name="패스 489" d="M85.878,19.366a6.793,6.793,0,0,1-1.362,2.089,32.8,32.8,0,0,1-2.444,2.555q-1.77,1.678-4.1,3.685c-1.552,1.332-3.085,2.622-4.605,3.854l-3.355-4.061q2.731-2.142,5.2-4.3t3.955-3.656a16.721,16.721,0,0,0,1.791-2.119A10.182,10.182,0,0,0,82.1,15.329a9.722,9.722,0,0,0,.6-2.289,19.291,19.291,0,0,0,.174-2.729V3.283h5.685v6.793c0,.888.029,1.7.085,2.41a9.155,9.155,0,0,0,.371,2,7.276,7.276,0,0,0,.88,1.838,10.21,10.21,0,0,0,1.622,1.822c1.328,1.232,2.778,2.516,4.348,3.826s3.216,2.6,4.925,3.83l-3.3,4.009q-2.217-1.677-4.239-3.4c-1.344-1.133-2.7-2.293-4.066-3.451a19.99,19.99,0,0,1-2.131-2.028,6.461,6.461,0,0,1-1.109-1.567Zm-5.4,24.027a7.731,7.731,0,0,1,1.079-3.951,10.149,10.149,0,0,1,3.131-3.248,16.909,16.909,0,0,1,4.975-2.21,27.647,27.647,0,0,1,13.254,0,16.974,16.974,0,0,1,4.974,2.21,10.117,10.117,0,0,1,3.128,3.248,7.731,7.731,0,0,1,1.079,3.951v2.324a7.744,7.744,0,0,1-1.079,3.945,10.205,10.205,0,0,1-3.128,3.247,16.9,16.9,0,0,1-4.974,2.21,27.747,27.747,0,0,1-13.254,0,16.832,16.832,0,0,1-4.975-2.21,10.238,10.238,0,0,1-3.131-3.247,7.744,7.744,0,0,1-1.079-3.945Zm26.106.348a3.87,3.87,0,0,0-.71-2.118,6.45,6.45,0,0,0-2.051-1.893,12.757,12.757,0,0,0-3.24-1.332,17.993,17.993,0,0,0-8.589,0,12.614,12.614,0,0,0-3.241,1.332,6.451,6.451,0,0,0-2.046,1.893A3.809,3.809,0,0,0,86,43.741v1.621a3.832,3.832,0,0,0,.711,2.125,6.416,6.416,0,0,0,2.046,1.883A12.9,12.9,0,0,0,91.993,50.7a17.794,17.794,0,0,0,8.589,0,13.054,13.054,0,0,0,3.24-1.329,6.415,6.415,0,0,0,2.051-1.883,3.894,3.894,0,0,0,.71-2.125Zm12.739-24.9H111.87V32.482H106.3V.91h5.571V13.847h7.452Z" fill="none" stroke="#ae0721" stroke-miterlimit="10" stroke-width="1.819"/>
          <path id="패스_490" data-name="패스 490" d="M137.632,19.366a6.724,6.724,0,0,1-1.363,2.089,31.376,31.376,0,0,1-2.444,2.555q-1.766,1.678-4.1,3.685c-1.556,1.332-3.091,2.622-4.606,3.854l-3.357-4.061q2.729-2.142,5.206-4.3t3.951-3.656a17.148,17.148,0,0,0,1.791-2.119,9.742,9.742,0,0,0,1.734-4.378,19.776,19.776,0,0,0,.171-2.729V3.283H140.3v6.793c0,.888.032,1.7.085,2.41a9.656,9.656,0,0,0,.37,2,7.564,7.564,0,0,0,.881,1.838,10.543,10.543,0,0,0,1.623,1.822c1.327,1.232,2.777,2.516,4.353,3.826s3.212,2.6,4.92,3.83l-3.3,4.009q-2.222-1.677-4.238-3.4c-1.345-1.133-2.7-2.293-4.071-3.451a21.131,21.131,0,0,1-2.132-2.028,6.666,6.666,0,0,1-1.106-1.567Zm-5.4,24.027a7.732,7.732,0,0,1,1.08-3.951,10.065,10.065,0,0,1,3.131-3.248,16.856,16.856,0,0,1,4.974-2.21,27.643,27.643,0,0,1,13.253,0,16.891,16.891,0,0,1,4.974,2.21,10.089,10.089,0,0,1,3.129,3.248,7.732,7.732,0,0,1,1.08,3.951v2.324a7.745,7.745,0,0,1-1.08,3.945,10.177,10.177,0,0,1-3.129,3.247,16.814,16.814,0,0,1-4.974,2.21,27.743,27.743,0,0,1-13.253,0,16.779,16.779,0,0,1-4.974-2.21,10.152,10.152,0,0,1-3.131-3.247,7.745,7.745,0,0,1-1.08-3.945Zm26.1.348a3.842,3.842,0,0,0-.707-2.118,6.41,6.41,0,0,0-2.049-1.893,12.773,12.773,0,0,0-3.244-1.332,17.985,17.985,0,0,0-8.587,0,12.772,12.772,0,0,0-3.242,1.332,6.445,6.445,0,0,0-2.05,1.893,3.848,3.848,0,0,0-.711,2.118v1.621a3.872,3.872,0,0,0,.711,2.125,6.411,6.411,0,0,0,2.05,1.883,13.07,13.07,0,0,0,3.242,1.329,17.786,17.786,0,0,0,8.587,0,13.071,13.071,0,0,0,3.244-1.329,6.375,6.375,0,0,0,2.049-1.883,3.865,3.865,0,0,0,.707-2.125Zm12.742-24.9h-7.449V32.482h-5.574V.91h5.574V13.847h7.449Z" fill="#ae0721"/>
          <path id="패스_491" data-name="패스 491" d="M137.632,19.366a6.724,6.724,0,0,1-1.363,2.089,31.376,31.376,0,0,1-2.444,2.555q-1.766,1.678-4.1,3.685c-1.556,1.332-3.091,2.622-4.606,3.854l-3.357-4.061q2.729-2.142,5.206-4.3t3.951-3.656a17.148,17.148,0,0,0,1.791-2.119,9.742,9.742,0,0,0,1.734-4.378,19.776,19.776,0,0,0,.171-2.729V3.283H140.3v6.793c0,.888.032,1.7.085,2.41a9.656,9.656,0,0,0,.37,2,7.564,7.564,0,0,0,.881,1.838,10.543,10.543,0,0,0,1.623,1.822c1.327,1.232,2.777,2.516,4.353,3.826s3.212,2.6,4.92,3.83l-3.3,4.009q-2.222-1.677-4.238-3.4c-1.345-1.133-2.7-2.293-4.071-3.451a21.131,21.131,0,0,1-2.132-2.028,6.666,6.666,0,0,1-1.106-1.567Zm-5.4,24.027a7.732,7.732,0,0,1,1.08-3.951,10.065,10.065,0,0,1,3.131-3.248,16.856,16.856,0,0,1,4.974-2.21,27.643,27.643,0,0,1,13.253,0,16.891,16.891,0,0,1,4.974,2.21,10.089,10.089,0,0,1,3.129,3.248,7.732,7.732,0,0,1,1.08,3.951v2.324a7.745,7.745,0,0,1-1.08,3.945,10.177,10.177,0,0,1-3.129,3.247,16.814,16.814,0,0,1-4.974,2.21,27.743,27.743,0,0,1-13.253,0,16.779,16.779,0,0,1-4.974-2.21,10.152,10.152,0,0,1-3.131-3.247,7.745,7.745,0,0,1-1.08-3.945Zm26.1.348a3.842,3.842,0,0,0-.707-2.118,6.41,6.41,0,0,0-2.049-1.893,12.773,12.773,0,0,0-3.244-1.332,17.985,17.985,0,0,0-8.587,0,12.772,12.772,0,0,0-3.242,1.332,6.445,6.445,0,0,0-2.05,1.893,3.848,3.848,0,0,0-.711,2.118v1.621a3.872,3.872,0,0,0,.711,2.125,6.411,6.411,0,0,0,2.05,1.883,13.07,13.07,0,0,0,3.242,1.329,17.786,17.786,0,0,0,8.587,0,13.071,13.071,0,0,0,3.244-1.329,6.375,6.375,0,0,0,2.049-1.883,3.865,3.865,0,0,0,.707-2.125Zm12.742-24.9h-7.449V32.482h-5.574V.91h5.574V13.847h7.449Z" fill="none" stroke="#ae0721" stroke-miterlimit="10" stroke-width="1.819"/>
          <path id="패스_492" data-name="패스 492" d="M213.3,56.228H171.446V51.979H213.3ZM192.371,33.5a7.784,7.784,0,0,1-1.852,2.172,31.825,31.825,0,0,1-3.986,2.933c-1.449.933-2.984,1.906-4.6,2.9s-3.459,2.074-5.54,3.255l-2.421-3.941q2.967-1.657,5.443-3.131t4.947-3.176a22.152,22.152,0,0,0,2.768-2.221,8.928,8.928,0,0,0,1.707-2.224,8,8,0,0,0,.84-2.555,20.448,20.448,0,0,0,.224-3.248v-5.1h4.95v5.1a23.069,23.069,0,0,0,.195,3.248,7.492,7.492,0,0,0,.844,2.58,9.054,9.054,0,0,0,1.828,2.3,26.9,26.9,0,0,0,3.215,2.464q2.325,1.573,4.654,2.929t5.24,2.984l-2.373,3.889-5.394-3.156c-1.749-1.031-3.364-2.026-4.848-3.007a34.849,34.849,0,0,1-3.91-2.856,7.188,7.188,0,0,1-1.873-2.143Z" fill="#002647"/>
          <path id="패스_493" data-name="패스 493" d="M213.3,56.228H171.446V51.979H213.3ZM192.371,33.5a7.784,7.784,0,0,1-1.852,2.172,31.825,31.825,0,0,1-3.986,2.933c-1.449.933-2.984,1.906-4.6,2.9s-3.459,2.074-5.54,3.255l-2.421-3.941q2.967-1.657,5.443-3.131t4.947-3.176a22.152,22.152,0,0,0,2.768-2.221,8.928,8.928,0,0,0,1.707-2.224,8,8,0,0,0,.84-2.555,20.448,20.448,0,0,0,.224-3.248v-5.1h4.95v5.1a23.069,23.069,0,0,0,.195,3.248,7.492,7.492,0,0,0,.844,2.58,9.054,9.054,0,0,0,1.828,2.3,26.9,26.9,0,0,0,3.215,2.464q2.325,1.573,4.654,2.929t5.24,2.984l-2.373,3.889-5.394-3.156c-1.749-1.031-3.364-2.026-4.848-3.007a34.849,34.849,0,0,1-3.91-2.856,7.188,7.188,0,0,1-1.873-2.143Z" fill="none" stroke="#032646" stroke-miterlimit="10" stroke-width="1.819"/>
          <path id="패스_494" data-name="패스 494" d="M251.892,33.756H226.958v6.105h25.975V44.1H239.82v7.875h18.5v4.249H216.468V51.979h18.506V44.1H222.1V19.274h30.133v4.234H226.958v6.1h24.934Z" fill="#002647"/>
          <path id="패스_495" data-name="패스 495" d="M251.892,33.756H226.958v6.105h25.975V44.1H239.82v7.875h18.5v4.249H216.468V51.979h18.506V44.1H222.1V19.274h30.133v4.234H226.958v6.1h24.934Z" fill="none" stroke="#032646" stroke-miterlimit="10" stroke-width="1.819"/>
          <path id="패스_496" data-name="패스 496" d="M269.652,36.991v9.892h4.65c1.649,0,3.147-.021,4.5-.05s2.647-.092,3.883-.177,2.441-.185,3.615-.306,2.4-.278,3.684-.476l.449,4.193q-1.737.244-3.488.455c-1.174.134-2.446.255-3.817.355s-2.865.172-4.5.227-3.472.071-5.513.071H264.8V32.8h15.543V23.856H264.658V19.573h20.531V36.991Zm24.683-21.108h4.9V62.432h-4.9Z" fill="#002647"/>
          <path id="패스_497" data-name="패스 497" d="M269.652,36.991v9.892h4.65c1.649,0,3.147-.021,4.5-.05s2.647-.092,3.883-.177,2.441-.185,3.615-.306,2.4-.278,3.684-.476l.449,4.193q-1.737.244-3.488.455c-1.174.134-2.446.255-3.817.355s-2.865.172-4.5.227-3.472.071-5.513.071H264.8V32.8h15.543V23.856H264.658V19.573h20.531V36.991Zm24.683-21.108h4.9V62.432h-4.9Z" fill="none" stroke="#032646" stroke-miterlimit="10" stroke-width="1.819"/>
          <path id="패스_498" data-name="패스 498" d="M179.064,7.763a2.608,2.608,0,0,1-1.621.743,5.866,5.866,0,0,1-2.067-.277c-.21-.1-.234-.107-.2-.27l.077-.774c.005-.113.052-.143.21-.068a4.308,4.308,0,0,0,2,.251,1.135,1.135,0,0,0,1.009-1.243,1.9,1.9,0,0,0-1.017-1.173c-1.59-.923-2.323-1.528-2.323-2.536A2.306,2.306,0,0,1,177.609.27a4.284,4.284,0,0,1,1.527.23c.164.054.184.114.149.21l-.135.671c-.031.153-.074.207-.232.153a4.15,4.15,0,0,0-1.475-.207c-.809.122-1.084.527-1.084,1.11,0,.349.377.8,1.092,1.215,1.783,1.059,2.244,1.606,2.244,2.541a2.2,2.2,0,0,1-.631,1.57" fill="#7f7e7e"/>
          <path id="패스_499" data-name="패스 499" d="M185.1,8.336h-.969c-.1,0-.138-.051-.138-.143V.561c0-.092.041-.135.138-.135h.969c.1,0,.143.043.143.135V8.193a.126.126,0,0,1-.143.143" fill="#7f7e7e"/>
          <path id="패스_500" data-name="패스 500" d="M194.55,8.336c-.121,0-.148-.036-.236-.174L190.956,2.5V8.162c0,.138-.029.174-.17.174h-.89c-.116,0-.166-.036-.166-.174V.6c0-.17.041-.2.205-.2h.98c.119,0,.155.015.235.167l3.357,5.653V.571c0-.138.029-.167.172-.167h.885c.136,0,.162.029.162.167V8.129c0,.171-.033.207-.192.207Z" fill="#7f7e7e"/>
          <path id="패스_501" data-name="패스 501" d="M206.07,8.25a6.62,6.62,0,0,1-1.762.227,3.826,3.826,0,0,1-4.021-4.1,3.83,3.83,0,0,1,4.021-4.1,6.155,6.155,0,0,1,1.77.21c.162.034.162.092.148.228l-.015.777c0,.221-.069.182-.239.124a5.908,5.908,0,0,0-1.664-.238,2.71,2.71,0,0,0-2.793,3,2.809,2.809,0,0,0,2.78,3.02,4.671,4.671,0,0,0,1.666-.212c.181-.069.228-.029.228.07l.037.74c.014.158,0,.212-.156.255" fill="#7f7e7e"/>
          <path id="패스_502" data-name="패스 502" d="M211.111,8.343c-.293,0-.3,0-.3-.306V.71c0-.284.006-.284.278-.284h3.792c.163,0,.163.043.163.17v.771c0,.132-.034.181-.163.181h-2.9V3.685h2.764c.1,0,.158.052.158.166V4.64c0,.114-.053.179-.158.179h-2.764V7.212h3.029c.092,0,.145.061.145.174v.786c0,.113-.053.171-.145.171Z" fill="#7f7e7e"/>
          <path id="패스_503" data-name="패스 503" d="M219.742,8.385c-.141,0-.2-.042-.2-.135v-.6a.59.59,0,0,1,.156-.334l1.629-1.888c1.186-1.383,1.74-2.27,1.74-2.859A1.1,1.1,0,0,0,221.976,1.4a3.335,3.335,0,0,0-1.75.52c-.111.071-.24.071-.273-.053l-.149-.8c-.035-.072.012-.138.149-.221a4.555,4.555,0,0,1,1.953-.539,2.132,2.132,0,0,1,2.375,2.217c0,1.26-1.289,2.657-2.092,3.574-.31.383-.674.811-1.027,1.2h3.129c.1,0,.152.049.152.17v.731c0,.114-.051.178-.152.178Z" fill="#7f7e7e"/>
          <path id="패스_504" data-name="패스 504" d="M231.683,8.428c-1.826,0-2.68-1.492-2.68-4.051,0-1.726.428-4.044,2.68-4.044,2.234,0,2.664,2.325,2.664,4.044,0,2.559-.844,4.051-2.664,4.051m0-6.953c-.9,0-1.463.763-1.463,2.9s.567,2.914,1.463,2.914,1.463-.763,1.463-2.914-.561-2.9-1.463-2.9" fill="#7f7e7e"/>
          <path id="패스_505" data-name="패스 505" d="M241.162,8.428c-1.828,0-2.684-1.492-2.684-4.051,0-1.726.424-4.044,2.684-4.044,2.232,0,2.66,2.325,2.66,4.044,0,2.559-.846,4.051-2.66,4.051m0-6.953c-.9,0-1.471.763-1.471,2.9s.571,2.914,1.471,2.914,1.463-.763,1.463-2.914-.565-2.9-1.463-2.9" fill="#7f7e7e"/>
          <path id="패스_506" data-name="패스 506" d="M252.3,7.763a3.139,3.139,0,0,1-2.1.686,5.368,5.368,0,0,1-1.721-.309c-.1-.053-.084-.092-.084-.188V7.107c0-.129.072-.16.226-.086a4.228,4.228,0,0,0,1.666.327,1.492,1.492,0,0,0,1.645-1.5c0-.913-.469-1.488-1.633-1.488a4.216,4.216,0,0,0-1.433.276c-.28.114-.415.05-.415-.191L248.5.572c.014-.153.024-.177.235-.177h3.912a.13.13,0,0,1,.138.13v.811a.142.142,0,0,1-.138.146h-2.971l-.037,1.95a4.107,4.107,0,0,1,.937-.092,2.366,2.366,0,0,1,2.565,2.373,2.585,2.585,0,0,1-.836,2.05" fill="#7f7e7e"/>
          <rect id="사각형_177" data-name="사각형 177" width="5.515" height="5.486" transform="translate(11.026 29.486)" fill="#ef5730"/>
          <rect id="사각형_178" data-name="사각형 178" width="5.515" height="5.494" transform="translate(11.026 18.562)" fill="#eb412f"/>
          <rect id="사각형_179" data-name="사각형 179" width="5.511" height="5.499" transform="translate(16.534 34.987)" fill="#ef5730"/>
          <rect id="사각형_180" data-name="사각형 180" width="5.508" height="5.499" transform="translate(5.518 34.987)" fill="#f77f34"/>
          <rect id="사각형_181" data-name="사각형 181" width="5.512" height="5.486" transform="translate(22.045 40.473)" fill="#eb412f"/>
          <rect id="사각형_182" data-name="사각형 182" width="5.519" height="5.486" transform="translate(0 40.473)" fill="#ffa800"/>
          <rect id="사각형_183" data-name="사각형 183" width="5.515" height="5.494" transform="translate(38.572 18.562)" fill="#7db42d"/>
          <rect id="사각형_184" data-name="사각형 184" width="5.515" height="5.494" transform="translate(27.563 18.562)" fill="#7db42d"/>
          <rect id="사각형_185" data-name="사각형 185" width="5.515" height="5.499" transform="translate(38.572 34.987)" fill="#a4c422"/>
          <rect id="사각형_186" data-name="사각형 186" width="5.515" height="5.499" transform="translate(27.563 34.987)" fill="#a4c422"/>
          <rect id="사각형_187" data-name="사각형 187" width="5.515" height="5.486" transform="translate(44.087 40.473)" fill="#7db42d"/>
        </g>
      </g>
      <g id="그룹_428" data-name="그룹 428">
        <g id="그룹_427" data-name="그룹 427" clip-path="url(#clip-path-3)">
          <rect id="사각형_189" data-name="사각형 189" width="5.508" height="10.903" transform="translate(33.078 24.069)" fill="url(#linear-gradient)"/>
        </g>
      </g>
      <g id="그룹_430" data-name="그룹 430">
        <g id="그룹_429" data-name="그룹 429" clip-path="url(#clip-path-2)">
          <rect id="사각형_191" data-name="사각형 191" width="5.515" height="5.492" transform="translate(11.026 51.439)" fill="#0099d9"/>
          <rect id="사각형_192" data-name="사각형 192" width="5.521" height="5.494" transform="translate(27.557 45.952)" fill="#005da7"/>
          <rect id="사각형_193" data-name="사각형 193" width="5.504" height="5.494" transform="translate(16.556 45.952)" fill="#0087c9"/>
          <rect id="사각형_194" data-name="사각형 194" width="5.508" height="5.492" transform="translate(33.078 51.439)" fill="#004c98"/>
        </g>
      </g>
      <g id="그룹_432" data-name="그룹 432">
        <g id="그룹_431" data-name="그룹 431" clip-path="url(#clip-path-5)">
          <rect id="사각형_196" data-name="사각형 196" width="5.512" height="10.986" transform="translate(22.045 29.486)" fill="url(#linear-gradient-2)"/>
        </g>
      </g>
    </g>
  </g>
</svg>
